<svg xmlns="http://www.w3.org/2000/svg" width="14" height="14" fill="none"><path d="M1.465 2.651a.55.55 0 0 1 .55-.55h9.892a.55.55 0 0 1 .55.55v7.694a.55.55 0 0 1-.55.55H2.014a.55.55 0 0 1-.55-.55z" stroke="#72c4ff" stroke-width="1.099"/><path d="M1.465 5.4h9.892z" clip-rule="evenodd" fill="#72c4ff" fill-rule="evenodd"/><path d="M1.975 5.4h9.8" stroke="#72c4ff" stroke-width="1.094" stroke-linecap="square"/><path d="M4.212 1.002a.55.55 0 0 1 1.1 0v2.2a.55.55 0 0 1-1.1 0zm4.397 0a.55.55 0 0 1 1.1 0v2.2a.55.55 0 0 1-1.1 0z" clip-rule="evenodd" fill="#72c4ff" fill-rule="evenodd"/></svg>