<svg width="40" height="40" fill="none" xmlns="http://www.w3.org/2000/svg"><path d="M40 20c0 11.046-8.954 20-20 20S0 31.046 0 20 8.954 0 20 0s20 8.954 20 20z" fill="url(#paint0_radial)"/><path d="M29 20a9 9 0 1 1-18 0 9 9 0 0 1 18 0z" fill="#fff"/><path d="M27 20a7 7 0 1 1-14 0 7 7 0 0 1 14 0z" fill="url(#paint1_linear)"/><defs><radialGradient id="paint0_radial" cx="0" cy="0" r="1" gradientUnits="userSpaceOnUse" gradientTransform="rotate(90 0 20) scale(22.5)"><stop stop-color="#5FD18F"/><stop offset="1" stop-color="#5FD18F" stop-opacity="0"/></radialGradient><linearGradient id="paint1_linear" x1="20" y1="5.125" x2="20" y2="27" gradientUnits="userSpaceOnUse"><stop stop-color="#5FD18F" stop-opacity="0"/><stop offset="1" stop-color="#5FD18F"/></linearGradient></defs></svg>